<svg height="512pt" viewBox="0 -27 512 512" width="512pt" xmlns="http://www.w3.org/2000/svg"><path d="m376.140625 0c-52.261719 0-97.613281 29.738281-120.140625 72.988281-22.527344-43.25-67.878906-72.988281-120.140625-72.988281-79.292969 0-135.859375 61.875-135.859375 150.777344 0 93.710937 66.175781 148.375 164.992188 230.972656 41.804687 35.203125 31.945312 26.847656 84.101562 72.085938 2.101562 1.800781 4.503906 2.703124 6.90625 3.003906.902344.601562 1.800781.601562 3.003906.601562 3.601563 0 6.90625-1.203125 9.910156-3.605468 78.570313-68.371094 116.277344-100.160157 154.683594-136.660157 45.351563-43.550781 88.402344-93.710937 88.402344-166.394531 0-88.90625-56.566406-150.78125-135.859375-150.78125zm0 0" fill="#ff637b"/><path d="m512 150.777344c0 72.6875-43.050781 122.847656-88.402344 166.394531-38.550781 36.644531-76.960937 69.03125-154.683594 136.664063-3 2.402343-6.308593 3.601562-9.910156 3.601562-1.203125 0-2.101562 0-3.003906-.601562v-119.539063h-15.019531c-16.519531 0-30.035157-13.515625-30.035157-30.035156s13.515626-30.035157 30.035157-30.035157h15.019531v-60.070312h15.015625c16.519531 0 30.035156-13.515625 30.035156-30.035156 0-16.519532-13.515625-30.035156-30.035156-30.035156h-15.015625v-84.097657c22.527344-43.25 67.878906-72.988281 120.140625-72.988281 79.292969 0 135.859375 61.875 135.859375 150.777344zm0 0" fill="#e63950"/></svg>